%TF.GenerationSoftware,KiCad,Pcbnew,7.0.6*%
%TF.CreationDate,2023-08-11T19:23:27-02:30*%
%TF.ProjectId,bioin_tacto_bno08x,62696f69-6e5f-4746-9163-746f5f626e6f,rev?*%
%TF.SameCoordinates,Original*%
%TF.FileFunction,Drillmap*%
%TF.FilePolarity,Positive*%
%FSLAX45Y45*%
G04 Gerber Fmt 4.5, Leading zero omitted, Abs format (unit mm)*
G04 Created by KiCad (PCBNEW 7.0.6) date 2023-08-11 19:23:27*
%MOMM*%
%LPD*%
G01*
G04 APERTURE LIST*
%ADD10C,0.100000*%
%ADD11C,0.200000*%
%ADD12C,0.040000*%
%ADD13C,0.050000*%
G04 APERTURE END LIST*
D10*
X13800000Y-7000000D02*
G75*
G03*
X13800000Y-7000000I-800000J0D01*
G01*
D11*
D12*
X12630000Y-7405000D02*
X12670000Y-7445000D01*
X12670000Y-7405000D02*
X12630000Y-7445000D01*
X13005000Y-6955000D02*
X13045000Y-6995000D01*
X13045000Y-6955000D02*
X13005000Y-6995000D01*
X13030000Y-6530000D02*
X13070000Y-6570000D01*
X13070000Y-6530000D02*
X13030000Y-6570000D01*
X13230000Y-6405000D02*
X13270000Y-6445000D01*
X13270000Y-6405000D02*
X13230000Y-6445000D01*
X13380000Y-6905000D02*
X13420000Y-6945000D01*
X13420000Y-6905000D02*
X13380000Y-6945000D01*
X13505000Y-7155000D02*
X13545000Y-7195000D01*
X13545000Y-7155000D02*
X13505000Y-7195000D01*
D13*
X12325000Y-7000000D02*
G75*
G03*
X12325000Y-7000000I-25000J0D01*
G01*
X13025000Y-6300000D02*
G75*
G03*
X13025000Y-6300000I-25000J0D01*
G01*
X13025000Y-7700000D02*
G75*
G03*
X13025000Y-7700000I-25000J0D01*
G01*
X13725000Y-7000000D02*
G75*
G03*
X13725000Y-7000000I-25000J0D01*
G01*
D11*
X12455777Y-8116484D02*
X12455777Y-7916484D01*
X12455777Y-7916484D02*
X12503396Y-7916484D01*
X12503396Y-7916484D02*
X12531967Y-7926008D01*
X12531967Y-7926008D02*
X12551015Y-7945055D01*
X12551015Y-7945055D02*
X12560539Y-7964103D01*
X12560539Y-7964103D02*
X12570062Y-8002198D01*
X12570062Y-8002198D02*
X12570062Y-8030769D01*
X12570062Y-8030769D02*
X12560539Y-8068865D01*
X12560539Y-8068865D02*
X12551015Y-8087912D01*
X12551015Y-8087912D02*
X12531967Y-8106960D01*
X12531967Y-8106960D02*
X12503396Y-8116484D01*
X12503396Y-8116484D02*
X12455777Y-8116484D01*
X12655777Y-8116484D02*
X12655777Y-7983150D01*
X12655777Y-8021246D02*
X12665301Y-8002198D01*
X12665301Y-8002198D02*
X12674824Y-7992674D01*
X12674824Y-7992674D02*
X12693872Y-7983150D01*
X12693872Y-7983150D02*
X12712920Y-7983150D01*
X12779586Y-8116484D02*
X12779586Y-7983150D01*
X12779586Y-7916484D02*
X12770062Y-7926008D01*
X12770062Y-7926008D02*
X12779586Y-7935531D01*
X12779586Y-7935531D02*
X12789110Y-7926008D01*
X12789110Y-7926008D02*
X12779586Y-7916484D01*
X12779586Y-7916484D02*
X12779586Y-7935531D01*
X12903396Y-8116484D02*
X12884348Y-8106960D01*
X12884348Y-8106960D02*
X12874824Y-8087912D01*
X12874824Y-8087912D02*
X12874824Y-7916484D01*
X13008158Y-8116484D02*
X12989110Y-8106960D01*
X12989110Y-8106960D02*
X12979586Y-8087912D01*
X12979586Y-8087912D02*
X12979586Y-7916484D01*
X13236729Y-8116484D02*
X13236729Y-7916484D01*
X13236729Y-7916484D02*
X13303396Y-8059341D01*
X13303396Y-8059341D02*
X13370062Y-7916484D01*
X13370062Y-7916484D02*
X13370062Y-8116484D01*
X13551015Y-8116484D02*
X13551015Y-8011722D01*
X13551015Y-8011722D02*
X13541491Y-7992674D01*
X13541491Y-7992674D02*
X13522443Y-7983150D01*
X13522443Y-7983150D02*
X13484348Y-7983150D01*
X13484348Y-7983150D02*
X13465301Y-7992674D01*
X13551015Y-8106960D02*
X13531967Y-8116484D01*
X13531967Y-8116484D02*
X13484348Y-8116484D01*
X13484348Y-8116484D02*
X13465301Y-8106960D01*
X13465301Y-8106960D02*
X13455777Y-8087912D01*
X13455777Y-8087912D02*
X13455777Y-8068865D01*
X13455777Y-8068865D02*
X13465301Y-8049817D01*
X13465301Y-8049817D02*
X13484348Y-8040293D01*
X13484348Y-8040293D02*
X13531967Y-8040293D01*
X13531967Y-8040293D02*
X13551015Y-8030769D01*
X13646253Y-7983150D02*
X13646253Y-8183150D01*
X13646253Y-7992674D02*
X13665301Y-7983150D01*
X13665301Y-7983150D02*
X13703396Y-7983150D01*
X13703396Y-7983150D02*
X13722443Y-7992674D01*
X13722443Y-7992674D02*
X13731967Y-8002198D01*
X13731967Y-8002198D02*
X13741491Y-8021246D01*
X13741491Y-8021246D02*
X13741491Y-8078388D01*
X13741491Y-8078388D02*
X13731967Y-8097436D01*
X13731967Y-8097436D02*
X13722443Y-8106960D01*
X13722443Y-8106960D02*
X13703396Y-8116484D01*
X13703396Y-8116484D02*
X13665301Y-8116484D01*
X13665301Y-8116484D02*
X13646253Y-8106960D01*
X13827205Y-8097436D02*
X13836729Y-8106960D01*
X13836729Y-8106960D02*
X13827205Y-8116484D01*
X13827205Y-8116484D02*
X13817682Y-8106960D01*
X13817682Y-8106960D02*
X13827205Y-8097436D01*
X13827205Y-8097436D02*
X13827205Y-8116484D01*
X13827205Y-7992674D02*
X13836729Y-8002198D01*
X13836729Y-8002198D02*
X13827205Y-8011722D01*
X13827205Y-8011722D02*
X13817682Y-8002198D01*
X13817682Y-8002198D02*
X13827205Y-7992674D01*
X13827205Y-7992674D02*
X13827205Y-8011722D01*
D12*
X12155000Y-8425000D02*
X12195000Y-8465000D01*
X12195000Y-8425000D02*
X12155000Y-8465000D01*
D11*
X12493872Y-8336484D02*
X12512920Y-8336484D01*
X12512920Y-8336484D02*
X12531967Y-8346008D01*
X12531967Y-8346008D02*
X12541491Y-8355531D01*
X12541491Y-8355531D02*
X12551015Y-8374579D01*
X12551015Y-8374579D02*
X12560539Y-8412674D01*
X12560539Y-8412674D02*
X12560539Y-8460293D01*
X12560539Y-8460293D02*
X12551015Y-8498389D01*
X12551015Y-8498389D02*
X12541491Y-8517436D01*
X12541491Y-8517436D02*
X12531967Y-8526960D01*
X12531967Y-8526960D02*
X12512920Y-8536484D01*
X12512920Y-8536484D02*
X12493872Y-8536484D01*
X12493872Y-8536484D02*
X12474824Y-8526960D01*
X12474824Y-8526960D02*
X12465301Y-8517436D01*
X12465301Y-8517436D02*
X12455777Y-8498389D01*
X12455777Y-8498389D02*
X12446253Y-8460293D01*
X12446253Y-8460293D02*
X12446253Y-8412674D01*
X12446253Y-8412674D02*
X12455777Y-8374579D01*
X12455777Y-8374579D02*
X12465301Y-8355531D01*
X12465301Y-8355531D02*
X12474824Y-8346008D01*
X12474824Y-8346008D02*
X12493872Y-8336484D01*
X12646253Y-8517436D02*
X12655777Y-8526960D01*
X12655777Y-8526960D02*
X12646253Y-8536484D01*
X12646253Y-8536484D02*
X12636729Y-8526960D01*
X12636729Y-8526960D02*
X12646253Y-8517436D01*
X12646253Y-8517436D02*
X12646253Y-8536484D01*
X12827205Y-8403150D02*
X12827205Y-8536484D01*
X12779586Y-8326960D02*
X12731967Y-8469817D01*
X12731967Y-8469817D02*
X12855777Y-8469817D01*
X12970062Y-8336484D02*
X12989110Y-8336484D01*
X12989110Y-8336484D02*
X13008158Y-8346008D01*
X13008158Y-8346008D02*
X13017682Y-8355531D01*
X13017682Y-8355531D02*
X13027205Y-8374579D01*
X13027205Y-8374579D02*
X13036729Y-8412674D01*
X13036729Y-8412674D02*
X13036729Y-8460293D01*
X13036729Y-8460293D02*
X13027205Y-8498389D01*
X13027205Y-8498389D02*
X13017682Y-8517436D01*
X13017682Y-8517436D02*
X13008158Y-8526960D01*
X13008158Y-8526960D02*
X12989110Y-8536484D01*
X12989110Y-8536484D02*
X12970062Y-8536484D01*
X12970062Y-8536484D02*
X12951015Y-8526960D01*
X12951015Y-8526960D02*
X12941491Y-8517436D01*
X12941491Y-8517436D02*
X12931967Y-8498389D01*
X12931967Y-8498389D02*
X12922443Y-8460293D01*
X12922443Y-8460293D02*
X12922443Y-8412674D01*
X12922443Y-8412674D02*
X12931967Y-8374579D01*
X12931967Y-8374579D02*
X12941491Y-8355531D01*
X12941491Y-8355531D02*
X12951015Y-8346008D01*
X12951015Y-8346008D02*
X12970062Y-8336484D01*
X13160539Y-8336484D02*
X13179586Y-8336484D01*
X13179586Y-8336484D02*
X13198634Y-8346008D01*
X13198634Y-8346008D02*
X13208158Y-8355531D01*
X13208158Y-8355531D02*
X13217682Y-8374579D01*
X13217682Y-8374579D02*
X13227205Y-8412674D01*
X13227205Y-8412674D02*
X13227205Y-8460293D01*
X13227205Y-8460293D02*
X13217682Y-8498389D01*
X13217682Y-8498389D02*
X13208158Y-8517436D01*
X13208158Y-8517436D02*
X13198634Y-8526960D01*
X13198634Y-8526960D02*
X13179586Y-8536484D01*
X13179586Y-8536484D02*
X13160539Y-8536484D01*
X13160539Y-8536484D02*
X13141491Y-8526960D01*
X13141491Y-8526960D02*
X13131967Y-8517436D01*
X13131967Y-8517436D02*
X13122443Y-8498389D01*
X13122443Y-8498389D02*
X13112920Y-8460293D01*
X13112920Y-8460293D02*
X13112920Y-8412674D01*
X13112920Y-8412674D02*
X13122443Y-8374579D01*
X13122443Y-8374579D02*
X13131967Y-8355531D01*
X13131967Y-8355531D02*
X13141491Y-8346008D01*
X13141491Y-8346008D02*
X13160539Y-8336484D01*
X13312920Y-8536484D02*
X13312920Y-8403150D01*
X13312920Y-8422198D02*
X13322443Y-8412674D01*
X13322443Y-8412674D02*
X13341491Y-8403150D01*
X13341491Y-8403150D02*
X13370063Y-8403150D01*
X13370063Y-8403150D02*
X13389110Y-8412674D01*
X13389110Y-8412674D02*
X13398634Y-8431722D01*
X13398634Y-8431722D02*
X13398634Y-8536484D01*
X13398634Y-8431722D02*
X13408158Y-8412674D01*
X13408158Y-8412674D02*
X13427205Y-8403150D01*
X13427205Y-8403150D02*
X13455777Y-8403150D01*
X13455777Y-8403150D02*
X13474824Y-8412674D01*
X13474824Y-8412674D02*
X13484348Y-8431722D01*
X13484348Y-8431722D02*
X13484348Y-8536484D01*
X13579586Y-8536484D02*
X13579586Y-8403150D01*
X13579586Y-8422198D02*
X13589110Y-8412674D01*
X13589110Y-8412674D02*
X13608158Y-8403150D01*
X13608158Y-8403150D02*
X13636729Y-8403150D01*
X13636729Y-8403150D02*
X13655777Y-8412674D01*
X13655777Y-8412674D02*
X13665301Y-8431722D01*
X13665301Y-8431722D02*
X13665301Y-8536484D01*
X13665301Y-8431722D02*
X13674824Y-8412674D01*
X13674824Y-8412674D02*
X13693872Y-8403150D01*
X13693872Y-8403150D02*
X13722443Y-8403150D01*
X13722443Y-8403150D02*
X13741491Y-8412674D01*
X13741491Y-8412674D02*
X13751015Y-8431722D01*
X13751015Y-8431722D02*
X13751015Y-8536484D01*
X14141491Y-8326960D02*
X13970063Y-8584103D01*
X14398634Y-8336484D02*
X14417682Y-8336484D01*
X14417682Y-8336484D02*
X14436729Y-8346008D01*
X14436729Y-8346008D02*
X14446253Y-8355531D01*
X14446253Y-8355531D02*
X14455777Y-8374579D01*
X14455777Y-8374579D02*
X14465301Y-8412674D01*
X14465301Y-8412674D02*
X14465301Y-8460293D01*
X14465301Y-8460293D02*
X14455777Y-8498389D01*
X14455777Y-8498389D02*
X14446253Y-8517436D01*
X14446253Y-8517436D02*
X14436729Y-8526960D01*
X14436729Y-8526960D02*
X14417682Y-8536484D01*
X14417682Y-8536484D02*
X14398634Y-8536484D01*
X14398634Y-8536484D02*
X14379586Y-8526960D01*
X14379586Y-8526960D02*
X14370063Y-8517436D01*
X14370063Y-8517436D02*
X14360539Y-8498389D01*
X14360539Y-8498389D02*
X14351015Y-8460293D01*
X14351015Y-8460293D02*
X14351015Y-8412674D01*
X14351015Y-8412674D02*
X14360539Y-8374579D01*
X14360539Y-8374579D02*
X14370063Y-8355531D01*
X14370063Y-8355531D02*
X14379586Y-8346008D01*
X14379586Y-8346008D02*
X14398634Y-8336484D01*
X14551015Y-8517436D02*
X14560539Y-8526960D01*
X14560539Y-8526960D02*
X14551015Y-8536484D01*
X14551015Y-8536484D02*
X14541491Y-8526960D01*
X14541491Y-8526960D02*
X14551015Y-8517436D01*
X14551015Y-8517436D02*
X14551015Y-8536484D01*
X14684348Y-8336484D02*
X14703396Y-8336484D01*
X14703396Y-8336484D02*
X14722444Y-8346008D01*
X14722444Y-8346008D02*
X14731967Y-8355531D01*
X14731967Y-8355531D02*
X14741491Y-8374579D01*
X14741491Y-8374579D02*
X14751015Y-8412674D01*
X14751015Y-8412674D02*
X14751015Y-8460293D01*
X14751015Y-8460293D02*
X14741491Y-8498389D01*
X14741491Y-8498389D02*
X14731967Y-8517436D01*
X14731967Y-8517436D02*
X14722444Y-8526960D01*
X14722444Y-8526960D02*
X14703396Y-8536484D01*
X14703396Y-8536484D02*
X14684348Y-8536484D01*
X14684348Y-8536484D02*
X14665301Y-8526960D01*
X14665301Y-8526960D02*
X14655777Y-8517436D01*
X14655777Y-8517436D02*
X14646253Y-8498389D01*
X14646253Y-8498389D02*
X14636729Y-8460293D01*
X14636729Y-8460293D02*
X14636729Y-8412674D01*
X14636729Y-8412674D02*
X14646253Y-8374579D01*
X14646253Y-8374579D02*
X14655777Y-8355531D01*
X14655777Y-8355531D02*
X14665301Y-8346008D01*
X14665301Y-8346008D02*
X14684348Y-8336484D01*
X14941491Y-8536484D02*
X14827206Y-8536484D01*
X14884348Y-8536484D02*
X14884348Y-8336484D01*
X14884348Y-8336484D02*
X14865301Y-8365055D01*
X14865301Y-8365055D02*
X14846253Y-8384103D01*
X14846253Y-8384103D02*
X14827206Y-8393627D01*
X15122444Y-8336484D02*
X15027206Y-8336484D01*
X15027206Y-8336484D02*
X15017682Y-8431722D01*
X15017682Y-8431722D02*
X15027206Y-8422198D01*
X15027206Y-8422198D02*
X15046253Y-8412674D01*
X15046253Y-8412674D02*
X15093872Y-8412674D01*
X15093872Y-8412674D02*
X15112920Y-8422198D01*
X15112920Y-8422198D02*
X15122444Y-8431722D01*
X15122444Y-8431722D02*
X15131967Y-8450770D01*
X15131967Y-8450770D02*
X15131967Y-8498389D01*
X15131967Y-8498389D02*
X15122444Y-8517436D01*
X15122444Y-8517436D02*
X15112920Y-8526960D01*
X15112920Y-8526960D02*
X15093872Y-8536484D01*
X15093872Y-8536484D02*
X15046253Y-8536484D01*
X15046253Y-8536484D02*
X15027206Y-8526960D01*
X15027206Y-8526960D02*
X15017682Y-8517436D01*
X15198634Y-8336484D02*
X15331967Y-8336484D01*
X15331967Y-8336484D02*
X15246253Y-8536484D01*
X15398634Y-8336484D02*
X15398634Y-8374579D01*
X15474825Y-8336484D02*
X15474825Y-8374579D01*
X15770063Y-8612674D02*
X15760539Y-8603150D01*
X15760539Y-8603150D02*
X15741491Y-8574579D01*
X15741491Y-8574579D02*
X15731968Y-8555531D01*
X15731968Y-8555531D02*
X15722444Y-8526960D01*
X15722444Y-8526960D02*
X15712920Y-8479341D01*
X15712920Y-8479341D02*
X15712920Y-8441246D01*
X15712920Y-8441246D02*
X15722444Y-8393627D01*
X15722444Y-8393627D02*
X15731968Y-8365055D01*
X15731968Y-8365055D02*
X15741491Y-8346008D01*
X15741491Y-8346008D02*
X15760539Y-8317436D01*
X15760539Y-8317436D02*
X15770063Y-8307912D01*
X15931968Y-8336484D02*
X15893872Y-8336484D01*
X15893872Y-8336484D02*
X15874825Y-8346008D01*
X15874825Y-8346008D02*
X15865301Y-8355531D01*
X15865301Y-8355531D02*
X15846253Y-8384103D01*
X15846253Y-8384103D02*
X15836729Y-8422198D01*
X15836729Y-8422198D02*
X15836729Y-8498389D01*
X15836729Y-8498389D02*
X15846253Y-8517436D01*
X15846253Y-8517436D02*
X15855777Y-8526960D01*
X15855777Y-8526960D02*
X15874825Y-8536484D01*
X15874825Y-8536484D02*
X15912920Y-8536484D01*
X15912920Y-8536484D02*
X15931968Y-8526960D01*
X15931968Y-8526960D02*
X15941491Y-8517436D01*
X15941491Y-8517436D02*
X15951015Y-8498389D01*
X15951015Y-8498389D02*
X15951015Y-8450770D01*
X15951015Y-8450770D02*
X15941491Y-8431722D01*
X15941491Y-8431722D02*
X15931968Y-8422198D01*
X15931968Y-8422198D02*
X15912920Y-8412674D01*
X15912920Y-8412674D02*
X15874825Y-8412674D01*
X15874825Y-8412674D02*
X15855777Y-8422198D01*
X15855777Y-8422198D02*
X15846253Y-8431722D01*
X15846253Y-8431722D02*
X15836729Y-8450770D01*
X16189110Y-8536484D02*
X16189110Y-8336484D01*
X16274825Y-8536484D02*
X16274825Y-8431722D01*
X16274825Y-8431722D02*
X16265301Y-8412674D01*
X16265301Y-8412674D02*
X16246253Y-8403150D01*
X16246253Y-8403150D02*
X16217682Y-8403150D01*
X16217682Y-8403150D02*
X16198634Y-8412674D01*
X16198634Y-8412674D02*
X16189110Y-8422198D01*
X16398634Y-8536484D02*
X16379587Y-8526960D01*
X16379587Y-8526960D02*
X16370063Y-8517436D01*
X16370063Y-8517436D02*
X16360539Y-8498389D01*
X16360539Y-8498389D02*
X16360539Y-8441246D01*
X16360539Y-8441246D02*
X16370063Y-8422198D01*
X16370063Y-8422198D02*
X16379587Y-8412674D01*
X16379587Y-8412674D02*
X16398634Y-8403150D01*
X16398634Y-8403150D02*
X16427206Y-8403150D01*
X16427206Y-8403150D02*
X16446253Y-8412674D01*
X16446253Y-8412674D02*
X16455777Y-8422198D01*
X16455777Y-8422198D02*
X16465301Y-8441246D01*
X16465301Y-8441246D02*
X16465301Y-8498389D01*
X16465301Y-8498389D02*
X16455777Y-8517436D01*
X16455777Y-8517436D02*
X16446253Y-8526960D01*
X16446253Y-8526960D02*
X16427206Y-8536484D01*
X16427206Y-8536484D02*
X16398634Y-8536484D01*
X16579587Y-8536484D02*
X16560539Y-8526960D01*
X16560539Y-8526960D02*
X16551015Y-8507912D01*
X16551015Y-8507912D02*
X16551015Y-8336484D01*
X16731968Y-8526960D02*
X16712920Y-8536484D01*
X16712920Y-8536484D02*
X16674825Y-8536484D01*
X16674825Y-8536484D02*
X16655777Y-8526960D01*
X16655777Y-8526960D02*
X16646253Y-8507912D01*
X16646253Y-8507912D02*
X16646253Y-8431722D01*
X16646253Y-8431722D02*
X16655777Y-8412674D01*
X16655777Y-8412674D02*
X16674825Y-8403150D01*
X16674825Y-8403150D02*
X16712920Y-8403150D01*
X16712920Y-8403150D02*
X16731968Y-8412674D01*
X16731968Y-8412674D02*
X16741491Y-8431722D01*
X16741491Y-8431722D02*
X16741491Y-8450770D01*
X16741491Y-8450770D02*
X16646253Y-8469817D01*
X16817682Y-8526960D02*
X16836730Y-8536484D01*
X16836730Y-8536484D02*
X16874825Y-8536484D01*
X16874825Y-8536484D02*
X16893873Y-8526960D01*
X16893873Y-8526960D02*
X16903396Y-8507912D01*
X16903396Y-8507912D02*
X16903396Y-8498389D01*
X16903396Y-8498389D02*
X16893873Y-8479341D01*
X16893873Y-8479341D02*
X16874825Y-8469817D01*
X16874825Y-8469817D02*
X16846253Y-8469817D01*
X16846253Y-8469817D02*
X16827206Y-8460293D01*
X16827206Y-8460293D02*
X16817682Y-8441246D01*
X16817682Y-8441246D02*
X16817682Y-8431722D01*
X16817682Y-8431722D02*
X16827206Y-8412674D01*
X16827206Y-8412674D02*
X16846253Y-8403150D01*
X16846253Y-8403150D02*
X16874825Y-8403150D01*
X16874825Y-8403150D02*
X16893873Y-8412674D01*
X16970063Y-8612674D02*
X16979587Y-8603150D01*
X16979587Y-8603150D02*
X16998634Y-8574579D01*
X16998634Y-8574579D02*
X17008158Y-8555531D01*
X17008158Y-8555531D02*
X17017682Y-8526960D01*
X17017682Y-8526960D02*
X17027206Y-8479341D01*
X17027206Y-8479341D02*
X17027206Y-8441246D01*
X17027206Y-8441246D02*
X17017682Y-8393627D01*
X17017682Y-8393627D02*
X17008158Y-8365055D01*
X17008158Y-8365055D02*
X16998634Y-8346008D01*
X16998634Y-8346008D02*
X16979587Y-8317436D01*
X16979587Y-8317436D02*
X16970063Y-8307912D01*
D13*
X12195000Y-8709000D02*
G75*
G03*
X12195000Y-8709000I-25000J0D01*
G01*
D11*
X12493872Y-8600484D02*
X12512920Y-8600484D01*
X12512920Y-8600484D02*
X12531967Y-8610008D01*
X12531967Y-8610008D02*
X12541491Y-8619531D01*
X12541491Y-8619531D02*
X12551015Y-8638579D01*
X12551015Y-8638579D02*
X12560539Y-8676674D01*
X12560539Y-8676674D02*
X12560539Y-8724293D01*
X12560539Y-8724293D02*
X12551015Y-8762389D01*
X12551015Y-8762389D02*
X12541491Y-8781436D01*
X12541491Y-8781436D02*
X12531967Y-8790960D01*
X12531967Y-8790960D02*
X12512920Y-8800484D01*
X12512920Y-8800484D02*
X12493872Y-8800484D01*
X12493872Y-8800484D02*
X12474824Y-8790960D01*
X12474824Y-8790960D02*
X12465301Y-8781436D01*
X12465301Y-8781436D02*
X12455777Y-8762389D01*
X12455777Y-8762389D02*
X12446253Y-8724293D01*
X12446253Y-8724293D02*
X12446253Y-8676674D01*
X12446253Y-8676674D02*
X12455777Y-8638579D01*
X12455777Y-8638579D02*
X12465301Y-8619531D01*
X12465301Y-8619531D02*
X12474824Y-8610008D01*
X12474824Y-8610008D02*
X12493872Y-8600484D01*
X12646253Y-8781436D02*
X12655777Y-8790960D01*
X12655777Y-8790960D02*
X12646253Y-8800484D01*
X12646253Y-8800484D02*
X12636729Y-8790960D01*
X12636729Y-8790960D02*
X12646253Y-8781436D01*
X12646253Y-8781436D02*
X12646253Y-8800484D01*
X12836729Y-8600484D02*
X12741491Y-8600484D01*
X12741491Y-8600484D02*
X12731967Y-8695722D01*
X12731967Y-8695722D02*
X12741491Y-8686198D01*
X12741491Y-8686198D02*
X12760539Y-8676674D01*
X12760539Y-8676674D02*
X12808158Y-8676674D01*
X12808158Y-8676674D02*
X12827205Y-8686198D01*
X12827205Y-8686198D02*
X12836729Y-8695722D01*
X12836729Y-8695722D02*
X12846253Y-8714770D01*
X12846253Y-8714770D02*
X12846253Y-8762389D01*
X12846253Y-8762389D02*
X12836729Y-8781436D01*
X12836729Y-8781436D02*
X12827205Y-8790960D01*
X12827205Y-8790960D02*
X12808158Y-8800484D01*
X12808158Y-8800484D02*
X12760539Y-8800484D01*
X12760539Y-8800484D02*
X12741491Y-8790960D01*
X12741491Y-8790960D02*
X12731967Y-8781436D01*
X12970062Y-8600484D02*
X12989110Y-8600484D01*
X12989110Y-8600484D02*
X13008158Y-8610008D01*
X13008158Y-8610008D02*
X13017682Y-8619531D01*
X13017682Y-8619531D02*
X13027205Y-8638579D01*
X13027205Y-8638579D02*
X13036729Y-8676674D01*
X13036729Y-8676674D02*
X13036729Y-8724293D01*
X13036729Y-8724293D02*
X13027205Y-8762389D01*
X13027205Y-8762389D02*
X13017682Y-8781436D01*
X13017682Y-8781436D02*
X13008158Y-8790960D01*
X13008158Y-8790960D02*
X12989110Y-8800484D01*
X12989110Y-8800484D02*
X12970062Y-8800484D01*
X12970062Y-8800484D02*
X12951015Y-8790960D01*
X12951015Y-8790960D02*
X12941491Y-8781436D01*
X12941491Y-8781436D02*
X12931967Y-8762389D01*
X12931967Y-8762389D02*
X12922443Y-8724293D01*
X12922443Y-8724293D02*
X12922443Y-8676674D01*
X12922443Y-8676674D02*
X12931967Y-8638579D01*
X12931967Y-8638579D02*
X12941491Y-8619531D01*
X12941491Y-8619531D02*
X12951015Y-8610008D01*
X12951015Y-8610008D02*
X12970062Y-8600484D01*
X13160539Y-8600484D02*
X13179586Y-8600484D01*
X13179586Y-8600484D02*
X13198634Y-8610008D01*
X13198634Y-8610008D02*
X13208158Y-8619531D01*
X13208158Y-8619531D02*
X13217682Y-8638579D01*
X13217682Y-8638579D02*
X13227205Y-8676674D01*
X13227205Y-8676674D02*
X13227205Y-8724293D01*
X13227205Y-8724293D02*
X13217682Y-8762389D01*
X13217682Y-8762389D02*
X13208158Y-8781436D01*
X13208158Y-8781436D02*
X13198634Y-8790960D01*
X13198634Y-8790960D02*
X13179586Y-8800484D01*
X13179586Y-8800484D02*
X13160539Y-8800484D01*
X13160539Y-8800484D02*
X13141491Y-8790960D01*
X13141491Y-8790960D02*
X13131967Y-8781436D01*
X13131967Y-8781436D02*
X13122443Y-8762389D01*
X13122443Y-8762389D02*
X13112920Y-8724293D01*
X13112920Y-8724293D02*
X13112920Y-8676674D01*
X13112920Y-8676674D02*
X13122443Y-8638579D01*
X13122443Y-8638579D02*
X13131967Y-8619531D01*
X13131967Y-8619531D02*
X13141491Y-8610008D01*
X13141491Y-8610008D02*
X13160539Y-8600484D01*
X13312920Y-8800484D02*
X13312920Y-8667150D01*
X13312920Y-8686198D02*
X13322443Y-8676674D01*
X13322443Y-8676674D02*
X13341491Y-8667150D01*
X13341491Y-8667150D02*
X13370063Y-8667150D01*
X13370063Y-8667150D02*
X13389110Y-8676674D01*
X13389110Y-8676674D02*
X13398634Y-8695722D01*
X13398634Y-8695722D02*
X13398634Y-8800484D01*
X13398634Y-8695722D02*
X13408158Y-8676674D01*
X13408158Y-8676674D02*
X13427205Y-8667150D01*
X13427205Y-8667150D02*
X13455777Y-8667150D01*
X13455777Y-8667150D02*
X13474824Y-8676674D01*
X13474824Y-8676674D02*
X13484348Y-8695722D01*
X13484348Y-8695722D02*
X13484348Y-8800484D01*
X13579586Y-8800484D02*
X13579586Y-8667150D01*
X13579586Y-8686198D02*
X13589110Y-8676674D01*
X13589110Y-8676674D02*
X13608158Y-8667150D01*
X13608158Y-8667150D02*
X13636729Y-8667150D01*
X13636729Y-8667150D02*
X13655777Y-8676674D01*
X13655777Y-8676674D02*
X13665301Y-8695722D01*
X13665301Y-8695722D02*
X13665301Y-8800484D01*
X13665301Y-8695722D02*
X13674824Y-8676674D01*
X13674824Y-8676674D02*
X13693872Y-8667150D01*
X13693872Y-8667150D02*
X13722443Y-8667150D01*
X13722443Y-8667150D02*
X13741491Y-8676674D01*
X13741491Y-8676674D02*
X13751015Y-8695722D01*
X13751015Y-8695722D02*
X13751015Y-8800484D01*
X14141491Y-8590960D02*
X13970063Y-8848103D01*
X14398634Y-8600484D02*
X14417682Y-8600484D01*
X14417682Y-8600484D02*
X14436729Y-8610008D01*
X14436729Y-8610008D02*
X14446253Y-8619531D01*
X14446253Y-8619531D02*
X14455777Y-8638579D01*
X14455777Y-8638579D02*
X14465301Y-8676674D01*
X14465301Y-8676674D02*
X14465301Y-8724293D01*
X14465301Y-8724293D02*
X14455777Y-8762389D01*
X14455777Y-8762389D02*
X14446253Y-8781436D01*
X14446253Y-8781436D02*
X14436729Y-8790960D01*
X14436729Y-8790960D02*
X14417682Y-8800484D01*
X14417682Y-8800484D02*
X14398634Y-8800484D01*
X14398634Y-8800484D02*
X14379586Y-8790960D01*
X14379586Y-8790960D02*
X14370063Y-8781436D01*
X14370063Y-8781436D02*
X14360539Y-8762389D01*
X14360539Y-8762389D02*
X14351015Y-8724293D01*
X14351015Y-8724293D02*
X14351015Y-8676674D01*
X14351015Y-8676674D02*
X14360539Y-8638579D01*
X14360539Y-8638579D02*
X14370063Y-8619531D01*
X14370063Y-8619531D02*
X14379586Y-8610008D01*
X14379586Y-8610008D02*
X14398634Y-8600484D01*
X14551015Y-8781436D02*
X14560539Y-8790960D01*
X14560539Y-8790960D02*
X14551015Y-8800484D01*
X14551015Y-8800484D02*
X14541491Y-8790960D01*
X14541491Y-8790960D02*
X14551015Y-8781436D01*
X14551015Y-8781436D02*
X14551015Y-8800484D01*
X14684348Y-8600484D02*
X14703396Y-8600484D01*
X14703396Y-8600484D02*
X14722444Y-8610008D01*
X14722444Y-8610008D02*
X14731967Y-8619531D01*
X14731967Y-8619531D02*
X14741491Y-8638579D01*
X14741491Y-8638579D02*
X14751015Y-8676674D01*
X14751015Y-8676674D02*
X14751015Y-8724293D01*
X14751015Y-8724293D02*
X14741491Y-8762389D01*
X14741491Y-8762389D02*
X14731967Y-8781436D01*
X14731967Y-8781436D02*
X14722444Y-8790960D01*
X14722444Y-8790960D02*
X14703396Y-8800484D01*
X14703396Y-8800484D02*
X14684348Y-8800484D01*
X14684348Y-8800484D02*
X14665301Y-8790960D01*
X14665301Y-8790960D02*
X14655777Y-8781436D01*
X14655777Y-8781436D02*
X14646253Y-8762389D01*
X14646253Y-8762389D02*
X14636729Y-8724293D01*
X14636729Y-8724293D02*
X14636729Y-8676674D01*
X14636729Y-8676674D02*
X14646253Y-8638579D01*
X14646253Y-8638579D02*
X14655777Y-8619531D01*
X14655777Y-8619531D02*
X14665301Y-8610008D01*
X14665301Y-8610008D02*
X14684348Y-8600484D01*
X14941491Y-8800484D02*
X14827206Y-8800484D01*
X14884348Y-8800484D02*
X14884348Y-8600484D01*
X14884348Y-8600484D02*
X14865301Y-8629055D01*
X14865301Y-8629055D02*
X14846253Y-8648103D01*
X14846253Y-8648103D02*
X14827206Y-8657627D01*
X15036729Y-8800484D02*
X15074825Y-8800484D01*
X15074825Y-8800484D02*
X15093872Y-8790960D01*
X15093872Y-8790960D02*
X15103396Y-8781436D01*
X15103396Y-8781436D02*
X15122444Y-8752865D01*
X15122444Y-8752865D02*
X15131967Y-8714770D01*
X15131967Y-8714770D02*
X15131967Y-8638579D01*
X15131967Y-8638579D02*
X15122444Y-8619531D01*
X15122444Y-8619531D02*
X15112920Y-8610008D01*
X15112920Y-8610008D02*
X15093872Y-8600484D01*
X15093872Y-8600484D02*
X15055777Y-8600484D01*
X15055777Y-8600484D02*
X15036729Y-8610008D01*
X15036729Y-8610008D02*
X15027206Y-8619531D01*
X15027206Y-8619531D02*
X15017682Y-8638579D01*
X15017682Y-8638579D02*
X15017682Y-8686198D01*
X15017682Y-8686198D02*
X15027206Y-8705246D01*
X15027206Y-8705246D02*
X15036729Y-8714770D01*
X15036729Y-8714770D02*
X15055777Y-8724293D01*
X15055777Y-8724293D02*
X15093872Y-8724293D01*
X15093872Y-8724293D02*
X15112920Y-8714770D01*
X15112920Y-8714770D02*
X15122444Y-8705246D01*
X15122444Y-8705246D02*
X15131967Y-8686198D01*
X15198634Y-8600484D02*
X15331967Y-8600484D01*
X15331967Y-8600484D02*
X15246253Y-8800484D01*
X15398634Y-8600484D02*
X15398634Y-8638579D01*
X15474825Y-8600484D02*
X15474825Y-8638579D01*
X15770063Y-8876674D02*
X15760539Y-8867150D01*
X15760539Y-8867150D02*
X15741491Y-8838579D01*
X15741491Y-8838579D02*
X15731968Y-8819531D01*
X15731968Y-8819531D02*
X15722444Y-8790960D01*
X15722444Y-8790960D02*
X15712920Y-8743341D01*
X15712920Y-8743341D02*
X15712920Y-8705246D01*
X15712920Y-8705246D02*
X15722444Y-8657627D01*
X15722444Y-8657627D02*
X15731968Y-8629055D01*
X15731968Y-8629055D02*
X15741491Y-8610008D01*
X15741491Y-8610008D02*
X15760539Y-8581436D01*
X15760539Y-8581436D02*
X15770063Y-8571912D01*
X15931968Y-8667150D02*
X15931968Y-8800484D01*
X15884348Y-8590960D02*
X15836729Y-8733817D01*
X15836729Y-8733817D02*
X15960539Y-8733817D01*
X16189110Y-8800484D02*
X16189110Y-8600484D01*
X16274825Y-8800484D02*
X16274825Y-8695722D01*
X16274825Y-8695722D02*
X16265301Y-8676674D01*
X16265301Y-8676674D02*
X16246253Y-8667150D01*
X16246253Y-8667150D02*
X16217682Y-8667150D01*
X16217682Y-8667150D02*
X16198634Y-8676674D01*
X16198634Y-8676674D02*
X16189110Y-8686198D01*
X16398634Y-8800484D02*
X16379587Y-8790960D01*
X16379587Y-8790960D02*
X16370063Y-8781436D01*
X16370063Y-8781436D02*
X16360539Y-8762389D01*
X16360539Y-8762389D02*
X16360539Y-8705246D01*
X16360539Y-8705246D02*
X16370063Y-8686198D01*
X16370063Y-8686198D02*
X16379587Y-8676674D01*
X16379587Y-8676674D02*
X16398634Y-8667150D01*
X16398634Y-8667150D02*
X16427206Y-8667150D01*
X16427206Y-8667150D02*
X16446253Y-8676674D01*
X16446253Y-8676674D02*
X16455777Y-8686198D01*
X16455777Y-8686198D02*
X16465301Y-8705246D01*
X16465301Y-8705246D02*
X16465301Y-8762389D01*
X16465301Y-8762389D02*
X16455777Y-8781436D01*
X16455777Y-8781436D02*
X16446253Y-8790960D01*
X16446253Y-8790960D02*
X16427206Y-8800484D01*
X16427206Y-8800484D02*
X16398634Y-8800484D01*
X16579587Y-8800484D02*
X16560539Y-8790960D01*
X16560539Y-8790960D02*
X16551015Y-8771912D01*
X16551015Y-8771912D02*
X16551015Y-8600484D01*
X16731968Y-8790960D02*
X16712920Y-8800484D01*
X16712920Y-8800484D02*
X16674825Y-8800484D01*
X16674825Y-8800484D02*
X16655777Y-8790960D01*
X16655777Y-8790960D02*
X16646253Y-8771912D01*
X16646253Y-8771912D02*
X16646253Y-8695722D01*
X16646253Y-8695722D02*
X16655777Y-8676674D01*
X16655777Y-8676674D02*
X16674825Y-8667150D01*
X16674825Y-8667150D02*
X16712920Y-8667150D01*
X16712920Y-8667150D02*
X16731968Y-8676674D01*
X16731968Y-8676674D02*
X16741491Y-8695722D01*
X16741491Y-8695722D02*
X16741491Y-8714770D01*
X16741491Y-8714770D02*
X16646253Y-8733817D01*
X16817682Y-8790960D02*
X16836730Y-8800484D01*
X16836730Y-8800484D02*
X16874825Y-8800484D01*
X16874825Y-8800484D02*
X16893873Y-8790960D01*
X16893873Y-8790960D02*
X16903396Y-8771912D01*
X16903396Y-8771912D02*
X16903396Y-8762389D01*
X16903396Y-8762389D02*
X16893873Y-8743341D01*
X16893873Y-8743341D02*
X16874825Y-8733817D01*
X16874825Y-8733817D02*
X16846253Y-8733817D01*
X16846253Y-8733817D02*
X16827206Y-8724293D01*
X16827206Y-8724293D02*
X16817682Y-8705246D01*
X16817682Y-8705246D02*
X16817682Y-8695722D01*
X16817682Y-8695722D02*
X16827206Y-8676674D01*
X16827206Y-8676674D02*
X16846253Y-8667150D01*
X16846253Y-8667150D02*
X16874825Y-8667150D01*
X16874825Y-8667150D02*
X16893873Y-8676674D01*
X16970063Y-8876674D02*
X16979587Y-8867150D01*
X16979587Y-8867150D02*
X16998634Y-8838579D01*
X16998634Y-8838579D02*
X17008158Y-8819531D01*
X17008158Y-8819531D02*
X17017682Y-8790960D01*
X17017682Y-8790960D02*
X17027206Y-8743341D01*
X17027206Y-8743341D02*
X17027206Y-8705246D01*
X17027206Y-8705246D02*
X17017682Y-8657627D01*
X17017682Y-8657627D02*
X17008158Y-8629055D01*
X17008158Y-8629055D02*
X16998634Y-8610008D01*
X16998634Y-8610008D02*
X16979587Y-8581436D01*
X16979587Y-8581436D02*
X16970063Y-8571912D01*
M02*
