%TF.GenerationSoftware,KiCad,Pcbnew,7.0.6*%
%TF.CreationDate,2023-08-11T19:23:08-02:30*%
%TF.ProjectId,bioin_tacto_bno08x,62696f69-6e5f-4746-9163-746f5f626e6f,rev?*%
%TF.SameCoordinates,Original*%
%TF.FileFunction,Copper,L1,Top*%
%TF.FilePolarity,Positive*%
%FSLAX46Y46*%
G04 Gerber Fmt 4.6, Leading zero omitted, Abs format (unit mm)*
G04 Created by KiCad (PCBNEW 7.0.6) date 2023-08-11 19:23:08*
%MOMM*%
%LPD*%
G01*
G04 APERTURE LIST*
G04 Aperture macros list*
%AMRoundRect*
0 Rectangle with rounded corners*
0 $1 Rounding radius*
0 $2 $3 $4 $5 $6 $7 $8 $9 X,Y pos of 4 corners*
0 Add a 4 corners polygon primitive as box body*
4,1,4,$2,$3,$4,$5,$6,$7,$8,$9,$2,$3,0*
0 Add four circle primitives for the rounded corners*
1,1,$1+$1,$2,$3*
1,1,$1+$1,$4,$5*
1,1,$1+$1,$6,$7*
1,1,$1+$1,$8,$9*
0 Add four rect primitives between the rounded corners*
20,1,$1+$1,$2,$3,$4,$5,0*
20,1,$1+$1,$4,$5,$6,$7,0*
20,1,$1+$1,$6,$7,$8,$9,0*
20,1,$1+$1,$8,$9,$2,$3,0*%
G04 Aperture macros list end*
%TA.AperFunction,SMDPad,CuDef*%
%ADD10RoundRect,0.135000X-0.185000X0.135000X-0.185000X-0.135000X0.185000X-0.135000X0.185000X0.135000X0*%
%TD*%
%TA.AperFunction,ComponentPad*%
%ADD11R,0.850000X0.850000*%
%TD*%
%TA.AperFunction,SMDPad,CuDef*%
%ADD12RoundRect,0.135000X0.185000X-0.135000X0.185000X0.135000X-0.185000X0.135000X-0.185000X-0.135000X0*%
%TD*%
%TA.AperFunction,SMDPad,CuDef*%
%ADD13R,0.254000X0.675000*%
%TD*%
%TA.AperFunction,SMDPad,CuDef*%
%ADD14R,0.675000X0.254000*%
%TD*%
%TA.AperFunction,SMDPad,CuDef*%
%ADD15RoundRect,0.140000X0.140000X0.170000X-0.140000X0.170000X-0.140000X-0.170000X0.140000X-0.170000X0*%
%TD*%
%TA.AperFunction,ViaPad*%
%ADD16C,0.800000*%
%TD*%
%TA.AperFunction,Conductor*%
%ADD17C,0.250000*%
%TD*%
G04 APERTURE END LIST*
D10*
%TO.P,R5,1*%
%TO.N,+3.3V*%
X134500000Y-66240000D03*
%TO.P,R5,2*%
%TO.N,Net-(J2-Pin_1)*%
X134500000Y-67260000D03*
%TD*%
D11*
%TO.P,J4,1,Pin_1*%
%TO.N,GND*%
X137000000Y-70000000D03*
%TD*%
D10*
%TO.P,R2,1*%
%TO.N,Net-(U1-ENV_SDA)*%
X134000000Y-71990000D03*
%TO.P,R2,2*%
%TO.N,+3.3V*%
X134000000Y-73010000D03*
%TD*%
D12*
%TO.P,R1,1*%
%TO.N,+3.3V*%
X132250000Y-74010000D03*
%TO.P,R1,2*%
%TO.N,Net-(U1-ENV_SCL)*%
X132250000Y-72990000D03*
%TD*%
D11*
%TO.P,J3,1,Pin_1*%
%TO.N,+3.3V*%
X123000000Y-70000000D03*
%TD*%
D12*
%TO.P,R3,1*%
%TO.N,Net-(U1-BOOTN)*%
X125500000Y-73010000D03*
%TO.P,R3,2*%
%TO.N,+3.3V*%
X125500000Y-71990000D03*
%TD*%
D11*
%TO.P,J2,1,Pin_1*%
%TO.N,Net-(J2-Pin_1)*%
X130000000Y-77000000D03*
%TD*%
D12*
%TO.P,R4,1*%
%TO.N,Net-(J1-Pin_1)*%
X132750000Y-66260000D03*
%TO.P,R4,2*%
%TO.N,+3.3V*%
X132750000Y-65240000D03*
%TD*%
D13*
%TO.P,U1,1,RESV_NC*%
%TO.N,unconnected-(U1-RESV_NC-Pad1)*%
X127750000Y-68337500D03*
D14*
%TO.P,U1,2,GND*%
%TO.N,GND*%
X127612500Y-69250000D03*
%TO.P,U1,3,VDD*%
%TO.N,+3.3V*%
X127612500Y-69750000D03*
%TO.P,U1,4,BOOTN*%
%TO.N,Net-(U1-BOOTN)*%
X127612500Y-70250000D03*
%TO.P,U1,5,PS1*%
%TO.N,GND*%
X127612500Y-70750000D03*
D13*
%TO.P,U1,6,PS0/WAKE*%
X127750000Y-71662500D03*
%TO.P,U1,7,RESV_NC*%
%TO.N,unconnected-(U1-RESV_NC-Pad7)*%
X128250000Y-71662500D03*
%TO.P,U1,8,RESV_NC*%
%TO.N,unconnected-(U1-RESV_NC-Pad8)*%
X128750000Y-71662500D03*
%TO.P,U1,9,CAP*%
%TO.N,Net-(U1-CAP)*%
X129250000Y-71662500D03*
%TO.P,U1,10,CLKSEL0*%
%TO.N,+3.3V*%
X129750000Y-71662500D03*
%TO.P,U1,11,NRST*%
%TO.N,unconnected-(U1-NRST-Pad11)*%
X130250000Y-71662500D03*
%TO.P,U1,12,RESV_NC*%
%TO.N,unconnected-(U1-RESV_NC-Pad12)*%
X130750000Y-71662500D03*
%TO.P,U1,13,RESV_NC*%
%TO.N,unconnected-(U1-RESV_NC-Pad13)*%
X131250000Y-71662500D03*
%TO.P,U1,14,H_INTN*%
%TO.N,unconnected-(U1-H_INTN-Pad14)*%
X131750000Y-71662500D03*
%TO.P,U1,15,ENV_SCL*%
%TO.N,Net-(U1-ENV_SCL)*%
X132250000Y-71662500D03*
D14*
%TO.P,U1,16,ENV_SDA*%
%TO.N,Net-(U1-ENV_SDA)*%
X132387500Y-70750000D03*
%TO.P,U1,17,SA0/H_MOSI*%
%TO.N,GND*%
X132387500Y-70250000D03*
%TO.P,U1,18,H_CSN*%
%TO.N,unconnected-(U1-H_CSN-Pad18)*%
X132387500Y-69750000D03*
%TO.P,U1,19,H_SCL/SCK/RX*%
%TO.N,Net-(J2-Pin_1)*%
X132387500Y-69250000D03*
D13*
%TO.P,U1,20,H_SDA/H_MISO/TX*%
%TO.N,Net-(J1-Pin_1)*%
X132250000Y-68337500D03*
%TO.P,U1,21,RESV_NC*%
%TO.N,unconnected-(U1-RESV_NC-Pad21)*%
X131750000Y-68337500D03*
%TO.P,U1,22,RESV_NC*%
%TO.N,unconnected-(U1-RESV_NC-Pad22)*%
X131250000Y-68337500D03*
%TO.P,U1,23,RESV_NC*%
%TO.N,unconnected-(U1-RESV_NC-Pad23)*%
X130750000Y-68337500D03*
%TO.P,U1,24,RESV_NC*%
%TO.N,unconnected-(U1-RESV_NC-Pad24)*%
X130250000Y-68337500D03*
%TO.P,U1,25,GNDIO*%
%TO.N,GND*%
X129750000Y-68337500D03*
%TO.P,U1,26,XOUT32/CLKSEL1*%
X129250000Y-68337500D03*
%TO.P,U1,27,XIN32*%
%TO.N,unconnected-(U1-XIN32-Pad27)*%
X128750000Y-68337500D03*
%TO.P,U1,28,VDDIO*%
%TO.N,+3.3V*%
X128250000Y-68337500D03*
%TD*%
D11*
%TO.P,J1,1,Pin_1*%
%TO.N,Net-(J1-Pin_1)*%
X130000000Y-63000000D03*
%TD*%
D15*
%TO.P,C1,1*%
%TO.N,Net-(U1-CAP)*%
X128367238Y-72746447D03*
%TO.P,C1,2*%
%TO.N,GND*%
X127407238Y-72746447D03*
%TD*%
D16*
%TO.N,GND*%
X130250000Y-69750000D03*
X126500000Y-74250000D03*
%TO.N,Net-(J2-Pin_1)*%
X135250000Y-71750000D03*
X134000000Y-69250000D03*
%TO.N,+3.3V*%
X130500000Y-65500000D03*
X132500000Y-64250000D03*
%TD*%
D17*
%TO.N,Net-(U1-CAP)*%
X128367238Y-72746447D02*
X128780553Y-72746447D01*
X128780553Y-72746447D02*
X129250000Y-72277000D01*
X129250000Y-72277000D02*
X129250000Y-71662500D01*
%TO.N,GND*%
X129750000Y-69250000D02*
X127612500Y-69250000D01*
X130250000Y-69750000D02*
X129750000Y-69250000D01*
X137000000Y-70000000D02*
X136750000Y-70250000D01*
X131000000Y-69750000D02*
X131500000Y-70250000D01*
X129750000Y-68837500D02*
X129250000Y-68337500D01*
X132387500Y-70250000D02*
X131500000Y-70250000D01*
X127750000Y-70887500D02*
X127612500Y-70750000D01*
X126500000Y-72912500D02*
X126500000Y-74250000D01*
X127407238Y-72005262D02*
X127581250Y-71831250D01*
X130250000Y-69750000D02*
X131000000Y-69750000D01*
X136750000Y-70250000D02*
X132387500Y-70250000D01*
X127581250Y-71831250D02*
X126500000Y-72912500D01*
X127581250Y-71831250D02*
X127750000Y-71662500D01*
X129750000Y-69250000D02*
X129750000Y-68337500D01*
X127407238Y-72746447D02*
X127407238Y-72005262D01*
X129750000Y-69250000D02*
X129750000Y-68837500D01*
X127750000Y-71662500D02*
X127750000Y-70887500D01*
%TO.N,Net-(J1-Pin_1)*%
X132750000Y-66260000D02*
X132750000Y-67837500D01*
X130000000Y-63000000D02*
X130000000Y-63510000D01*
X132750000Y-67837500D02*
X132250000Y-68337500D01*
X130000000Y-63510000D02*
X132750000Y-66260000D01*
%TO.N,Net-(J2-Pin_1)*%
X132387500Y-69250000D02*
X134000000Y-69250000D01*
X134500000Y-67260000D02*
X132510000Y-69250000D01*
X132510000Y-69250000D02*
X132387500Y-69250000D01*
X130980538Y-77000000D02*
X130000000Y-77000000D01*
X135250000Y-71750000D02*
X135250000Y-72730538D01*
X135250000Y-72730538D02*
X130980538Y-77000000D01*
%TO.N,+3.3V*%
X128250000Y-68337500D02*
X128250000Y-67750000D01*
X131483000Y-74010000D02*
X129750000Y-72277000D01*
X133500000Y-65240000D02*
X134500000Y-66240000D01*
X132750000Y-65240000D02*
X132750000Y-64500000D01*
X132750000Y-64500000D02*
X132500000Y-64250000D01*
X130000000Y-65500000D02*
X128000000Y-67500000D01*
X132750000Y-65240000D02*
X133500000Y-65240000D01*
X127473000Y-67500000D02*
X126500000Y-68473000D01*
X125500000Y-71990000D02*
X125500000Y-70750000D01*
X125500000Y-70750000D02*
X126500000Y-69750000D01*
X128250000Y-67750000D02*
X128000000Y-67500000D01*
X132250000Y-74010000D02*
X131483000Y-74010000D01*
X128452000Y-69750000D02*
X127612500Y-69750000D01*
X126250000Y-70000000D02*
X126500000Y-69750000D01*
X123000000Y-70000000D02*
X126250000Y-70000000D01*
X133000000Y-74010000D02*
X134000000Y-73010000D01*
X129750000Y-71048000D02*
X128452000Y-69750000D01*
X129750000Y-71662500D02*
X129750000Y-71048000D01*
X126500000Y-69750000D02*
X127612500Y-69750000D01*
X126500000Y-68473000D02*
X126500000Y-69750000D01*
X128000000Y-67500000D02*
X127473000Y-67500000D01*
X129750000Y-72277000D02*
X129750000Y-71662500D01*
X132250000Y-74010000D02*
X133000000Y-74010000D01*
X130500000Y-65500000D02*
X130000000Y-65500000D01*
%TO.N,Net-(U1-ENV_SCL)*%
X132250000Y-72990000D02*
X132250000Y-71662500D01*
%TO.N,Net-(U1-ENV_SDA)*%
X134000000Y-71990000D02*
X133627500Y-71990000D01*
X133627500Y-71990000D02*
X132387500Y-70750000D01*
%TO.N,Net-(U1-BOOTN)*%
X127612500Y-70250000D02*
X126998000Y-70250000D01*
X126998000Y-70250000D02*
X126145000Y-71103000D01*
X126145000Y-71103000D02*
X126145000Y-72365000D01*
X126145000Y-72365000D02*
X125500000Y-73010000D01*
%TD*%
M02*
